<?xml version="1.0" encoding="UTF-8"?>
<svg id="Layer_1" data-name="Layer 1" xmlns="http://www.w3.org/2000/svg" viewBox="0 0 229.66 250.38">
  <defs>
    <style>
      .cls-1 {
        font-family: CenturySchoolbook, 'Century Schoolbook';
        font-size: 46px;
      }

      .cls-1, .cls-2 {
        fill: #f2f2f2;
      }

      .cls-2 {
        stroke-width: 0px;
      }
    </style>
  </defs>
  <g>
    <path class="cls-2" d="m90.7,84.29c-.73.3-1.1.45-1.82.77,0,27.34,0,54.68,0,82.02-1.86-.86-2.78-1.33-4.59-2.34-2.55-19.64-5.14-39.29-8.24-58.85v51.64c.65.48.98.71,1.64,1.17,0,.73,0,1.1,0,1.83-1.99-1.44-2.96-2.21-4.83-3.85v-1.64c.63.52.94.77,1.58,1.27v-62.65c-.64.5-.95.75-1.58,1.27v-1.64c2.54-2.22,3.87-3.24,6.6-5.09,2.78,17.57,5.23,35.19,7.61,52.83v-55.15c-.72.34-1.07.51-1.78.87v-2.08c2.12-1.14,3.21-1.66,5.4-2.6,0,.89,0,1.33,0,2.21Zm-3.34,79.92c-3.12-24.23-6.28-48.46-10.18-72.58-.58.41-.87.62-1.44,1.04,3.89,23.51,6.99,47.15,10.05,70.78.63.31.94.46,1.58.76Z"/>
    <path class="cls-2" d="m112.54,173.1c-4.07-.27-6.11-.56-10.11-1.46v-2.41c.77.16,1.15.24,1.92.38-.56-11.03-.84-16.51-1.4-27.41-2.22-.17-3.32-.28-5.5-.52-.61,10.46-.91,15.64-1.51,25.86.75.24,1.13.35,1.89.56v2.35c-2.29-.68-3.42-1.07-5.65-1.96v-2.25c.74.28,1.11.41,1.85.67,1.82-29.28,3.58-58.56,5.32-87.85,2.45-.67,3.68-.94,6.17-1.37,1.71,30.92,3.39,61.85,5.07,92.77.78.07,1.17.1,1.95.15v2.48Zm-9.66-33.25c-.84-16.7-1.69-33.4-2.55-50.09-.92,16.55-1.85,33.1-2.79,49.65,2.12.2,3.19.29,5.35.44Zm4.58,30.26c-1.61-29.81-3.24-59.62-4.89-89.43-.62.13-.93.2-1.54.34,1.65,29.62,3.26,59.24,4.87,88.86.62.1.93.15,1.56.23Z"/>
    <path class="cls-2" d="m140.43,169.02c-3.86,1.45-5.84,2.02-9.85,2.85v-2.42c.77-.15,1.15-.23,1.92-.4v-63.32c-1.46,22.2-2.9,44.4-4.33,66.59-1.98.33-2.98.46-4.98.65-1.73-22.66-3.45-45.33-5.17-67.99,0,21.92,0,43.85,0,65.77.78-.01,1.17-.02,1.96-.05v2.49c-2.34.1-3.52.1-5.86,0v-2.49c.78.03,1.17.04,1.95.05v-91.56c-.78.01-1.17.02-1.95.05v-2.49c3.33-.15,5-.11,8.31.15,1.78,24.84,3.56,49.67,5.37,74.51,1.53-24.31,3.07-48.62,4.63-72.93,3.25.77,4.86,1.26,8.01,2.44v2.27c-.74-.26-1.11-.39-1.86-.63v84.81c.75-.24,1.12-.37,1.86-.63v2.27Zm-13.89,1.1c-2.42-30.3-4.8-60.59-7.18-90.89-.69-.02-1.03-.03-1.72-.04,2.39,30.38,4.78,60.76,7.19,91.14.69-.08,1.03-.12,1.71-.21Zm9.02-1.84v-86.61c-.61-.17-.91-.25-1.52-.4,0,29.14,0,58.27,0,87.41.61-.15.92-.23,1.52-.4Z"/>
    <path class="cls-2" d="m160.15,148.34c0,2.59-.73,5.3-2.24,8.37s-3.39,5.54-5.66,6.99c-2.25,1.44-4.25,1.41-5.95-.19s-2.56-4.26-2.56-7.68v-61.69c0-3.41.87-6.08,2.56-7.68s3.69-1.63,5.95-.19c2.28,1.45,4.15,3.92,5.66,6.99,1.51,3.06,2.24,5.78,2.24,8.37,0,4.17,0,6.25,0,10.42-2.01-.7-3.05-1.02-5.19-1.62,0-6.51,0-9.77,0-16.29,0-1.15-.26-2.29-.79-3.45-.52-1.15-1.17-1.99-1.92-2.45-.76-.46-1.41-.41-1.96.18-.54.58-.82,1.53-.82,2.79,0,22.52,0,45.04,0,67.56,0,1.26.28,2.2.82,2.79.54.58,1.2.64,1.96.18.76-.46,1.4-1.29,1.92-2.45.52-1.15.79-2.3.79-3.45,0-6.51,0-9.77,0-16.29,2.14-.6,3.18-.93,5.19-1.62,0,4.17,0,6.25,0,10.42Zm-12.58,14.03c-.63-1.18-.94-2.96-.94-5.27,0-21.41,0-42.82,0-64.23,0-2.27.31-4.03.94-5.21-1.57,1-2.38,3.13-2.38,6.14,0,20.81,0,41.63,0,62.44,0,2.97.81,5.1,2.38,6.14Zm10.02-52.89v-10.95c0-2.62-.77-5.21-2.37-7.87.71,1.76,1.07,3.65,1.07,5.72,0,5.06,0,7.59,0,12.65.53.18.79.27,1.31.45Zm0,41.97v-10.9c-.52.18-.78.27-1.31.45,0,5.06,0,7.59,0,12.65,0,2.04-.35,3.91-1.07,5.67,1.6-2.66,2.37-5.24,2.37-7.87Z"/>
  </g>
  <text class="cls-1" transform="translate(12.88 174.89) rotate(59.2) scale(.37 1)"><tspan x="0" y="0">E</tspan></text>
  <text class="cls-1" transform="translate(20.34 187.19) rotate(51.82) scale(.37 1)"><tspan x="0" y="0">D</tspan></text>
  <text class="cls-1" transform="translate(30.01 199.23) rotate(44.17) scale(.37 1)"><tspan x="0" y="0">G</tspan></text>
  <text class="cls-1" transform="translate(41.12 209.79) rotate(36.8) scale(.37 1)"><tspan x="0" y="0">E</tspan></text>
  <text class="cls-1" transform="translate(52.9 218.58) rotate(28.4) scale(.37 1)"><tspan x="0" y="0">W</tspan></text>
  <text class="cls-1" transform="translate(69.5 227.08) rotate(21.5) scale(.37 1)"><tspan x="0" y="0">I</tspan></text>
  <text class="cls-1" transform="translate(77.29 230.16) rotate(16.43) scale(.37 1)"><tspan x="0" y="0">Z</tspan></text>
  <text class="cls-1" transform="translate(89.09 233.58) rotate(9.81) scale(.37 1)"><tspan x="0" y="0">E</tspan></text>
  <text class="cls-1" transform="translate(102.63 235.69) rotate(4.86) scale(.37 1)"><tspan x="0" y="0"> </tspan></text>
  <text class="cls-1" transform="translate(108.47 236.22) rotate(.93) scale(.37 1)"><tspan x="0" y="0">•</tspan></text>
  <text class="cls-1" transform="translate(120.12 236.21) rotate(-3.76) scale(.37 1)"><tspan x="0" y="0"> </tspan></text>
  <text class="cls-1" transform="translate(126.19 235.89) rotate(-8.42) scale(.37 1)"><tspan x="0" y="0">T</tspan></text>
  <text class="cls-1" transform="translate(139.37 233.84) rotate(-15.32) scale(.37 1)"><tspan x="0" y="0">A</tspan></text>
  <text class="cls-1" transform="translate(153.16 229.92) rotate(-22.51) scale(.37 1)"><tspan x="0" y="0">A</tspan></text>
  <text class="cls-1" transform="translate(166.37 224.31) rotate(-29.68) scale(.37 1)"><tspan x="0" y="0">R</tspan></text>
  <text class="cls-1" transform="translate(178.74 217.1) rotate(-36.8) scale(.37 1)"><tspan x="0" y="0">A</tspan></text>
  <text class="cls-1" transform="translate(190.26 208.36) rotate(-44.36) scale(.37 1)"><tspan x="0" y="0">N</tspan></text>
  <text class="cls-1" transform="translate(201.45 197.1) rotate(-51.45) scale(.37 1)"><tspan x="0" y="0">S</tspan></text>
  <text class="cls-1" transform="translate(209.4 187.1) rotate(-58.65) scale(.37 1)"><tspan x="0" y="0">H</tspan></text>
  <text class="cls-1" transform="translate(39.4 89.14) rotate(-62.55) scale(.37 1)"><tspan x="0" y="0">B</tspan></text>
  <text class="cls-1" transform="translate(44 80.03) rotate(-55.41) scale(.37 1)"><tspan x="0" y="0">A</tspan></text>
  <text class="cls-1" transform="translate(49.61 71.59) rotate(-48.03) scale(.37 1)"><tspan x="0" y="0">K</tspan></text>
  <text class="cls-1" transform="translate(57.02 63.26) rotate(-40.94) scale(.37 1)"><tspan x="0" y="0">L</tspan></text>
  <text class="cls-1" transform="translate(64.43 56.87) rotate(-35.65) scale(.37 1)"><tspan x="0" y="0">I</tspan></text>
  <text class="cls-1" transform="translate(68.24 53.64) rotate(-28.79) scale(.37 1)"><tspan x="0" y="0">W</tspan></text>
  <text class="cls-1" transform="translate(80.66 46.79) rotate(-20.35) scale(.37 1)"><tspan x="0" y="0">A</tspan></text>
  <text class="cls-1" transform="translate(90.78 43.13) rotate(-15.18) scale(.37 1)"><tspan x="0" y="0">l</tspan></text>
  <text class="cls-1" transform="translate(95.13 41.94) rotate(-12.21) scale(.37 1)"><tspan x="0" y="0"> </tspan></text>
  <text class="cls-1" transform="translate(98.96 41.09) rotate(-9.45) scale(.37 1)"><tspan x="0" y="0"> </tspan></text>
  <text class="cls-1" transform="translate(102.85 40.43) rotate(-6.68) scale(.37 1)"><tspan x="0" y="0"> </tspan></text>
  <text class="cls-1" transform="translate(106.21 39.85) rotate(-2.04) scale(.37 1)"><tspan x="0" y="0">F</tspan></text>
  <text class="cls-1" transform="translate(115.48 39.33) rotate(4.99) scale(.37 1)"><tspan x="0" y="0">O</tspan></text>
  <text class="cls-1" transform="translate(126.39 40.11) rotate(12.86) scale(.37 1)"><tspan x="0" y="0">U</tspan></text>
  <text class="cls-1" transform="translate(137.63 42.51) rotate(20.97) scale(.37 1)"><tspan x="0" y="0">N</tspan></text>
  <text class="cls-1" transform="translate(148.48 46.52) rotate(28.88) scale(.37 1)"><tspan x="0" y="0">D</tspan></text>
  <text class="cls-1" transform="translate(158.22 51.78) rotate(36.29) scale(.37 1)"><tspan x="0" y="0">A</tspan></text>
  <text class="cls-1" transform="translate(166.57 57.8) rotate(43.12) scale(.37 1)"><tspan x="0" y="0">T</tspan></text>
  <text class="cls-1" transform="translate(173.69 64.51) rotate(48.39) scale(.37 1)"><tspan x="0" y="0">I</tspan></text>
  <text class="cls-1" transform="translate(177.35 68.27) rotate(54.22) scale(.37 1)"><tspan x="0" y="0">O</tspan></text>
  <text class="cls-1" transform="translate(183.9 77.06) rotate(62.1) scale(.37 1)"><tspan x="0" y="0">N</tspan></text>
</svg>